<?xml version="1.0" encoding="utf-8"?>
<!-- Generator: Adobe Illustrator 18.1.1, SVG Export Plug-In . SVG Version: 6.00 Build 0)  -->
<svg version="1.1" id="Layer_1" xmlns="http://www.w3.org/2000/svg" xmlns:xlink="http://www.w3.org/1999/xlink" x="0px" y="0px"
	 viewBox="0 0 72 72" enable-background="new 0 0 72 72" xml:space="preserve">
<g>
	<path fill="#010101" d="M65.7,58.5l-17-17c5.5-9,4.4-20.9-3.4-28.7c-9.1-9.1-23.9-9.1-33,0s-9.1,23.9,0,33
		c7.8,7.8,19.7,8.9,28.7,3.4l17,17c2.2,2.2,5.6,2.1,7.8,0C67.9,64.1,67.9,60.7,65.7,58.5z M41.4,42c-7,7-18.3,7-25.3,0
		s-7-18.3,0-25.3c7-7,18.3-7,25.3,0C48.4,23.7,48.4,35,41.4,42z"/>
</g>
</svg>
