<?xml version="1.0" encoding="utf-8"?>
<!-- Generator: Adobe Illustrator 16.0.4, SVG Export Plug-In . SVG Version: 6.00 Build 0)  -->
<!DOCTYPE svg PUBLIC "-//W3C//DTD SVG 1.1//EN" "http://www.w3.org/Graphics/SVG/1.1/DTD/svg11.dtd">
<svg version="1.1" id="Layer_1" xmlns="http://www.w3.org/2000/svg" xmlns:xlink="http://www.w3.org/1999/xlink" x="0px" y="0px"
	 width="216.027px" height="221.147px" viewBox="0 0 216.027 221.147" enable-background="new 0 0 216.027 221.147"
	 xml:space="preserve">
<g>
	<defs>
		<rect id="SVGID_1_" width="216.027" height="221.147"/>
	</defs>
	<clipPath id="SVGID_2_">
		<use xlink:href="#SVGID_1_"  overflow="visible"/>
	</clipPath>
	<g clip-path="url(#SVGID_2_)">
		<defs>
			<rect id="SVGID_3_" width="216.027" height="221.147"/>
		</defs>
		<clipPath id="SVGID_4_">
			<use xlink:href="#SVGID_3_"  overflow="visible"/>
		</clipPath>
		<path clip-path="url(#SVGID_4_)" fill="#231F20" d="M107.526,197.906c-49.834,0-90.378-40.543-90.378-90.379
			c0-49.835,40.544-90.379,90.378-90.379v3.43c-47.943,0-86.948,39.006-86.948,86.949s39.005,86.949,86.948,86.949V197.906z"/>
		<path clip-path="url(#SVGID_4_)" fill="#231F20" d="M107.526,180.757c-40.379,0-73.229-32.852-73.229-73.23
			s32.85-73.231,73.229-73.231v3.429c-38.489,0-69.8,31.313-69.8,69.802c0,38.488,31.311,69.801,69.8,69.801V180.757z"/>
		<path clip-path="url(#SVGID_4_)" fill="#231F20" d="M107.526,163.61c-30.923,0-56.082-25.159-56.082-56.083
			c0-30.925,25.159-56.084,56.082-56.084v3.43c-29.032,0-52.652,23.62-52.652,52.654c0,29.033,23.62,52.653,52.652,52.653V163.61z"
			/>
		<path clip-path="url(#SVGID_4_)" fill="#231F20" d="M107.526,146.462c-21.468,0-38.934-17.466-38.934-38.936
			c0-21.469,17.466-38.935,38.934-38.935v3.429c-19.578,0-35.504,15.929-35.504,35.506c0,19.578,15.926,35.506,35.504,35.506
			V146.462z"/>
		
			<rect x="147.443" y="184.59" transform="matrix(-0.7071 0.7071 -0.7071 -0.7071 410.2628 222.4708)" clip-path="url(#SVGID_4_)" fill="#FDFA53" width="23.227" height="23.227"/>
		<path clip-path="url(#SVGID_4_)" fill="#231F20" d="M159.056,182.206l13.999,13.999l-13.999,13.999l-13.999-13.999
			L159.056,182.206z M159.056,177.356l-18.849,18.849l18.849,18.849l18.85-18.849L159.056,177.356z"/>
		
			<rect x="174.337" y="183.846" transform="matrix(0.7071 -0.7071 0.7071 0.7071 -82.9553 186.8148)" clip-path="url(#SVGID_4_)" fill="#7AF1CE" width="19.405" height="19.405"/>
		
			<rect x="180.981" y="150.179" transform="matrix(0.7071 -0.7071 0.7071 0.7071 -56.3966 179.7137)" clip-path="url(#SVGID_4_)" fill="#FDFA53" width="15.508" height="15.509"/>
		<path clip-path="url(#SVGID_4_)" fill="#231F20" d="M188.736,171.325l-13.393-13.392l13.393-13.39l13.39,13.39L188.736,171.325z
			 M180.194,157.933l8.542,8.542l8.54-8.542l-8.54-8.54L180.194,157.933z"/>
		<g clip-path="url(#SVGID_4_)">
			<g>
				<defs>
					<rect id="SVGID_5_" x="167.139" y="163.059" width="17.756" height="17.757"/>
				</defs>
				<clipPath id="SVGID_6_">
					<use xlink:href="#SVGID_5_"  overflow="visible"/>
				</clipPath>
				
					<rect x="171.454" y="167.375" transform="matrix(0.7072 -0.7071 0.7071 0.7072 -70.0247 174.8034)" clip-path="url(#SVGID_6_)" fill="#5CB7F3" width="9.125" height="9.127"/>
				<path clip-path="url(#SVGID_6_)" fill="#231F20" d="M176.016,180.817l-8.877-8.879l8.877-8.879l8.879,8.879L176.016,180.817z
					 M171.988,171.938l4.027,4.028l4.029-4.028l-4.029-4.029L171.988,171.938z"/>
			</g>
		</g>
		
			<rect x="184.064" y="205.026" transform="matrix(0.7071 -0.7071 0.7071 0.7071 -93.4128 195.8595)" clip-path="url(#SVGID_4_)" fill="#FF102B" width="11.346" height="11.346"/>
		<path clip-path="url(#SVGID_4_)" d="M189.737,221.147L179.289,210.7l10.448-10.448l10.448,10.448L189.737,221.147z M184.14,210.7
			l5.598,5.598l5.599-5.598l-5.599-5.599L184.14,210.7z"/>
	</g>
	<g clip-path="url(#SVGID_2_)">
		<defs>
			<polygon id="SVGID_7_" points="146.645,17.793 146.645,70.404 182.545,52.483 182.545,1.55 			"/>
		</defs>
		<clipPath id="SVGID_8_">
			<use xlink:href="#SVGID_7_"  overflow="visible"/>
		</clipPath>
		
			<linearGradient id="SVGID_9_" gradientUnits="userSpaceOnUse" x1="0" y1="221.147" x2="1" y2="221.147" gradientTransform="matrix(-19.6451 -44.1236 -44.1236 19.6451 9932.2305 -4286.4121)">
			<stop  offset="0" style="stop-color:#5EB5F7"/>
			<stop  offset="0.3304" style="stop-color:#80EFCA"/>
			<stop  offset="0.6197" style="stop-color:#FDFA16"/>
			<stop  offset="1" style="stop-color:#FB2425"/>
		</linearGradient>
		<polygon clip-path="url(#SVGID_8_)" fill="url(#SVGID_9_)" points="152.584,83.744 121.061,12.941 176.605,-11.79 208.129,59.013 
					"/>
	</g>
	<g clip-path="url(#SVGID_2_)">
		<defs>
			<rect id="SVGID_10_" width="216.027" height="221.147"/>
		</defs>
		<clipPath id="SVGID_11_">
			<use xlink:href="#SVGID_10_"  overflow="visible"/>
		</clipPath>
		<path clip-path="url(#SVGID_11_)" fill="#231F20" d="M181.545,3.1v48.764l-33.899,16.923V18.438L181.545,3.1z M183.545,0
			l-37.899,17.148V72.02l37.899-18.919V0z"/>
		<g clip-path="url(#SVGID_11_)">
			<g>
				<defs>
					<rect id="SVGID_12_" x="201.426" y="181.321" width="14.602" height="14.601"/>
				</defs>
				<clipPath id="SVGID_13_">
					<use xlink:href="#SVGID_12_"  overflow="visible"/>
				</clipPath>
				
					<rect x="205.279" y="185.173" transform="matrix(0.7071 -0.7071 0.7071 0.7071 -72.2403 202.8377)" clip-path="url(#SVGID_13_)" fill="#5CB7F3" width="6.894" height="6.894"/>
				<path clip-path="url(#SVGID_13_)" fill="#231F20" d="M208.728,195.92l-7.302-7.301l7.302-7.299l7.299,7.299L208.728,195.92z
					 M206.275,188.62l2.452,2.452l2.449-2.452l-2.449-2.45L206.275,188.62z"/>
			</g>
		</g>
		
			<rect x="137.704" y="150.339" transform="matrix(-0.7071 0.7071 -0.7071 -0.7071 369.4327 170.893)" clip-path="url(#SVGID_11_)" fill="#FF102B" width="23.239" height="23.239"/>
		<path clip-path="url(#SVGID_11_)" fill="#231F20" d="M149.323,147.951l14.008,14.009l-14.008,14.008l-14.009-14.008
			L149.323,147.951z M149.323,143.101l-18.858,18.858l18.858,18.857l18.857-18.857L149.323,143.101z"/>
		
			<rect x="160.991" y="148.851" transform="matrix(0.7071 -0.7071 0.7071 0.7071 -60.6529 163.5984)" clip-path="url(#SVGID_11_)" fill="#7AF1CE" width="12.326" height="12.325"/>
		<path clip-path="url(#SVGID_11_)" fill="#231F20" d="M167.153,166.154l-11.141-11.14l11.141-11.141l11.141,11.141L167.153,166.154
			z M160.863,155.014l6.29,6.29l6.29-6.29l-6.29-6.291L160.863,155.014z"/>
		<path clip-path="url(#SVGID_11_)" fill="#231F20" d="M107.526,72.021h38.119l37.9-18.92V0h-76.019C48.236,0,0,48.236,0,107.526
			c0,59.291,48.236,107.527,107.526,107.527h51.53v-3.43h-51.53c-57.4,0-104.096-46.697-104.096-104.097
			C3.43,50.127,50.126,3.43,107.526,3.43h68.439l-30.32,13.718h-38.119c-49.834,0-90.378,40.544-90.378,90.379
			c0,49.836,40.544,90.379,90.378,90.379h37.422v-3.431h-37.422c-47.943,0-86.949-39.006-86.949-86.949s39.006-86.949,86.949-86.949
			h38.119v13.718h-38.119c-40.379,0-73.23,32.852-73.23,73.231c0,40.379,32.851,73.231,73.23,73.231h51.53v-3.429h-51.53
			c-38.489,0-69.8-31.313-69.8-69.802c0-38.488,31.311-69.801,69.8-69.801h38.119v13.718h-38.119
			c-30.923,0-56.082,25.159-56.082,56.083c0,30.925,25.159,56.084,56.082,56.084h27.689v-3.431h-27.689
			c-29.032,0-52.652-23.62-52.652-52.654s23.62-52.654,52.652-52.654h38.119v13.719h-38.119c-21.468,0-38.934,17.465-38.934,38.935
			c0,21.47,17.466,38.936,38.934,38.936h41.797v-3.43h-41.797c-19.578,0-35.505-15.929-35.505-35.506
			C72.021,87.95,87.948,72.021,107.526,72.021 M180.116,50.979l-31.041,15.496V54.928l21.835-10.413V9.481l9.206-4.165V50.979z
			 M149.075,37.797l13.529-6.453V13.239l4.876-2.207v31.32l-18.405,8.777V37.797z M159.175,14.791v14.391l-10.1,4.817V19.36
			L159.175,14.791z"/>
		<path clip-path="url(#SVGID_11_)" fill="#231F20" d="M184.039,209.694l-16.146-16.146l16.146-16.146l16.146,16.146
			L184.039,209.694z M172.742,193.548l11.297,11.297l11.296-11.297l-11.296-11.297L172.742,193.548z"/>
	</g>
</g>
</svg>
