<?xml version="1.0" encoding="utf-8"?>
<!-- Generator: Adobe Illustrator 18.1.1, SVG Export Plug-In . SVG Version: 6.00 Build 0)  -->
<svg version="1.1" id="Layer_1" xmlns="http://www.w3.org/2000/svg" xmlns:xlink="http://www.w3.org/1999/xlink" x="0px" y="0px"
	 viewBox="0 0 72 72" enable-background="new 0 0 72 72" xml:space="preserve">
<path fill="#010101" d="M49.4,28.4C49.4,28.4,49.4,28.3,49.4,28.4l-0.1,0C49.3,28.4,49.4,28.4,49.4,28.4z M33.1,5.7
	c-0.5,0.1-0.9,0.3-1.4,0.5C32.2,6,32.6,5.8,33.1,5.7z M27,7.9c0.4-0.2,0.9-0.4,1.4-0.5C27.9,7.5,27.5,7.7,27,7.9z M49.4,24.2
	c-3.6-0.1-7.3,0.4-10.9,1.5l13.8,37.9l-2.9,1.1L35.6,26.8c-3.4,1.4-6.5,3.4-9.1,5.8c0,0,0,0,0,0c0,0,0,0,0,0
	c-3.4-0.3-6.9-0.1-10.5,0.7c-3.5,0.8-6.8,2.2-9.7,4C6.9,24.6,14.8,13,26.9,7.9c0,0,0,0,0,0c0,0,0.1,0,0.1,0l0,0
	c0.6-0.2,1.2-0.5,1.8-0.7L28.3,6l2.5-0.9l0.5,1.2c0.6-0.2,1.2-0.4,1.8-0.6l0,0c0,0,0.1,0,0.1,0c0,0,0,0,0,0
	c12.6-3.9,26-0.1,34.7,9.2c-3.4,0.5-6.8,1.6-10,3.2C54.7,19.7,51.8,21.8,49.4,24.2C49.4,24.2,49.4,24.2,49.4,24.2z M37.1,26.2
	C37.1,26.2,37.1,26.2,37.1,26.2C37.1,26.2,37.1,26.2,37.1,26.2L37.1,26.2z M47.1,22.7C43,13.4,37.7,7.2,33.5,7.2
	c-1,0.3-1.9,0.7-2.8,1l-0.1,0.1c-0.9,0.3-1.9,0.6-2.8,1c-2.7,2.3-3.8,9.5-0.5,20.7c2.8-2.2,6-4,9.4-5.2C40,23.5,43.5,22.8,47.1,22.7
	z"/>
</svg>
